<svg width="268" height="134" viewBox="0 0 268 134" fill="none" xmlns="http://www.w3.org/2000/svg">
<rect width="268" height="134" fill="white"/>
<g clip-path="url(#clip0_1278_51)">
<path d="M86.9742 79.5789L86.4298 77.684C85.3414 78.6312 83.5994 79.9997 80.7691 79.9997C77.3929 79.9997 75.0015 77.8944 75.0015 75.0522C75.0001 73.1591 75.6533 70.9473 79.7895 69.577L85.1238 67.7891C85.8858 67.5787 85.9946 67.4717 85.9946 66.9471V66.2102C85.9946 64.6314 84.5794 64.2101 82.8379 64.2101C80.0076 64.2101 77.2865 65.9994 76.3064 66.631V62.9473C78.5467 61.6694 81.108 61.0137 83.7087 61.0524C89.4763 61.0524 90.6753 63.8945 90.6753 67.3683V79.5789H86.9742ZM82.1847 71.7893C80.3344 72.4209 79.6812 73.263 79.6812 74.5262C79.6812 76.3155 81.3139 76.7367 82.0759 76.7367C82.8379 76.7367 84.3619 76.5263 86.1034 74.7366V70.3156C85.8858 70.526 85.7752 70.526 84.9058 70.8421L82.1847 71.7893Z" fill="#202020"/>
<path d="M93.6144 54.4209H98.0775V58.7367H93.6144V54.4209ZM93.6144 61.3684H98.0775V79.4737H93.6144V61.3684Z" fill="#202020"/>
<path d="M105.806 79.5794H101.343V61.3703H105.697V64.7389C107.112 62.7388 109.073 61.0547 111.793 61.0547C112.16 61.0257 112.528 61.0613 112.882 61.1599V65.2653C112.452 65.1822 112.013 65.1469 111.575 65.1601C109.507 65.1601 105.914 67.055 105.914 70.634V79.5794H105.806Z" fill="#202020"/>
<path d="M114.515 79.5792V54H123.005C125.291 54 132.802 54 132.802 60.2121C132.802 64.5279 129.319 65.6859 127.577 66.2119C129.645 66.7384 133.455 67.7908 133.455 72.5278C133.455 76.4224 130.407 79.5806 123.658 79.5806L114.515 79.5792ZM119.522 64.4209H123.006C127.469 64.4209 127.904 61.7909 127.904 60.9471C127.904 57.7894 124.528 57.7894 123.441 57.7894H119.522V64.4209ZM119.522 75.7894H122.57C125.836 75.7894 128.231 74.737 128.231 72C128.231 70.2108 127.251 68.1055 122.897 68.1055H119.521L119.522 75.7894Z" fill="#202020"/>
<path d="M146.192 79.5789L145.648 77.684C144.559 78.6312 142.817 79.9997 139.987 79.9997C136.611 79.9997 134.219 77.8943 134.219 75.0522C134.219 73.1573 134.872 70.9468 139.009 69.5783L144.342 67.7891C145.104 67.5787 145.212 67.4717 145.212 66.9471V66.2102C145.212 64.6314 143.797 64.2101 142.056 64.2101C139.117 64.2101 136.395 65.9994 135.307 66.631V62.9473C137.547 61.6695 140.108 61.0138 142.708 61.0524C148.476 61.0524 149.675 63.8945 149.675 67.3683V79.5789H146.192ZM141.402 71.7893C139.552 72.4209 138.899 73.263 138.899 74.5262C138.899 76.3155 140.532 76.7367 141.294 76.7367C142.056 76.7367 143.58 76.5263 145.321 74.7366V70.3156C145.104 70.526 144.993 70.526 144.124 70.8421L141.402 71.7893Z" fill="#202020"/>
<path d="M157.077 54H152.614V79.5792H157.077V54Z" fill="#202020"/>
<path d="M161.432 64.7369H158.601V61.3683H161.432V55.4736H165.895V61.3683H169.271V64.633H165.895V74.0001C165.895 75.3686 166.112 76.5266 168.181 76.5266C168.725 76.5266 169.16 76.4215 169.487 76.4215V79.6862C168.802 79.7828 168.11 79.818 167.419 79.7914C162.411 79.7914 161.54 77.3705 161.54 74.2141V64.7369H161.432Z" fill="#202020"/>
<path d="M171.664 54.4209H176.127V58.7367H171.664V54.4209ZM171.664 61.3684H176.127V79.4737H171.664V61.3684Z" fill="#202020"/>
<path d="M192.78 66.3156C191.459 65.0994 189.705 64.4209 187.881 64.4206C184.071 64.4206 182.439 67.4732 182.439 70.5257C182.439 71.789 182.767 76.6308 187.664 76.6308C190.167 76.6308 191.909 75.4727 192.998 74.7359V78.5252C191.124 79.4976 189.029 80.0041 186.902 79.9989C180.478 79.9989 177.867 75.3675 177.867 70.5252C177.869 65.4735 180.808 61.0525 187.121 61.0525C189.065 61.0182 190.983 61.4909 192.673 62.421V66.3156H192.78Z" fill="#202020"/>
</g>
<defs>
<clipPath id="clip0_1278_51">
<rect width="118" height="26" fill="white" transform="translate(75 54)"/>
</clipPath>
</defs>
</svg>
