<svg width="268" height="134" viewBox="0 0 268 134" fill="none" xmlns="http://www.w3.org/2000/svg">
<rect width="268" height="134" fill="white"/>
<g clip-path="url(#clip0_1278_102)">
<mask id="mask0_1278_102" style="mask-type:luminance" maskUnits="userSpaceOnUse" x="86" y="55" width="96" height="25">
<path d="M182 55H86V80H182V55Z" fill="white"/>
</mask>
<g mask="url(#mask0_1278_102)">
<path d="M131.078 55.1084H113.347V58.1417H120.702V80.0001H123.732V58.1417H131.087V55.1084H131.078ZM103.948 55.1084C97.136 55.1084 93.7802 63.1167 93.463 63.7667C93.463 63.7667 87.5193 76.7501 86 80.0001H89.3475L94.3228 69.1751H106.536V80.0001H109.674V55.1084H103.948ZM106.653 65.9334H95.8421L96.2762 64.9584C96.2762 64.9584 99.081 58.2501 103.948 58.2501H106.653V65.9334ZM158.326 55.1084V80.0001H161.464V69.1751H173.677L178.653 80.0001H182C180.489 76.7501 174.537 63.7667 174.537 63.7667C174.32 63.1167 170.864 55.1084 164.052 55.1084H158.326ZM161.247 58.0334H163.952C168.819 58.0334 171.632 64.7417 171.632 64.7417L172.066 65.7167H161.256V58.0334H161.247ZM151.622 65.8251H139.192C138.216 65.8251 137.464 66.5834 137.464 67.5584C137.464 68.5334 138.224 69.2917 139.192 69.2917H151.622C152.599 69.2917 153.35 68.5334 153.35 67.5584C153.242 66.5834 152.591 65.8251 151.622 65.8251Z" fill="#202020"/>
<path d="M131.078 67.55C131.078 60.625 136.696 55 143.617 55C147.073 55 150.429 56.625 152.808 59.2167C153.35 59.8667 153.35 60.8417 152.699 61.4917C152.048 62.0333 151.08 62.0333 150.429 61.3833C148.592 59.4333 146.104 58.2417 143.617 58.2417C138.424 58.2417 134.317 62.4583 134.317 67.55C134.317 72.6417 138.533 76.8583 143.617 76.8583C146.104 76.8583 148.701 75.6667 150.429 73.7167C151.08 73.0667 152.048 73.0667 152.699 73.6083C153.35 74.15 153.35 75.2333 152.808 75.775C150.429 78.375 146.973 79.9917 143.617 79.9917C136.696 80.1 131.078 74.475 131.078 67.5417V67.55Z" fill="#202020"/>
</g>
</g>
<defs>
<clipPath id="clip0_1278_102">
<rect width="96" height="25" fill="white" transform="translate(86 55)"/>
</clipPath>
</defs>
</svg>
