<svg width="268" height="134" viewBox="0 0 268 134" fill="none" xmlns="http://www.w3.org/2000/svg">
<rect width="268" height="134" fill="white"/>
<g clip-path="url(#clip0_1317_13)">
<path d="M71.5271 77.269V81.4235L73.7267 82.9763L86.0516 74.2863V70.1318L83.852 68.5791L71.5271 77.269Z" fill="#202020"/>
<path d="M71.527 56.8157V52.6611L69.3249 51.1084L57 59.7982V63.9528L59.2021 65.5055L71.527 56.8157Z" fill="#202020"/>
<path d="M108.108 68.1514H106.155C105.623 70.0579 104.114 71.0726 101.778 71.0726C98.7001 71.0726 96.8662 69.0457 96.7199 65.53H108.108V64.5177C108.108 60.4344 105.477 57.6631 101.6 57.6631C97.5173 57.6631 94.7373 60.7612 94.7373 65.2621C94.7373 69.763 97.549 72.8317 101.748 72.8317C105.121 72.8317 107.34 71.193 108.108 68.1539M101.6 59.4222C104.292 59.4222 106.067 61.2697 106.067 64.0411H96.7784C97.1345 61.2108 98.9073 59.4222 101.6 59.4222Z" fill="#202020"/>
<path d="M117.162 70.9812C114.263 70.9812 112.37 68.6865 112.37 65.2592C112.37 61.8319 114.411 59.4782 117.311 59.4782C119.293 59.4782 121.008 60.5814 121.542 62.5788H123.583C123.022 59.5986 120.596 57.6602 117.282 57.6602C113.111 57.6602 110.358 60.7607 110.358 65.2911C110.358 69.8216 113.109 72.8312 117.162 72.8312C120.415 72.8312 122.961 70.8927 123.642 67.9421H121.571C121.01 69.7896 119.293 70.9812 117.165 70.9812" fill="#202020"/>
<path d="M133.018 72.8287C137.22 72.8287 140.295 69.6397 140.295 65.2592C140.295 60.8786 137.217 57.6602 133.018 57.6602C128.819 57.6602 125.741 60.8491 125.741 65.2592C125.741 69.6692 128.819 72.8287 133.018 72.8287ZM133.018 59.5052C136.064 59.5052 138.224 61.8908 138.224 65.2273C138.224 68.5637 136.064 70.9788 133.018 70.9788C129.972 70.9788 127.811 68.6251 127.811 65.2273C127.811 61.8294 129.94 59.5052 133.018 59.5052Z" fill="#202020"/>
<path d="M152.66 57.0634C150.531 57.0634 148.577 57.9577 147.69 59.2991V50H143.134V72.4728H147.424L147.661 70.5663C148.46 71.9372 150.233 72.861 152.306 72.861C156.508 72.861 159.435 69.7924 159.435 65.171C159.435 60.3139 156.8 57.0659 152.66 57.0659M151.329 68.6598C149.199 68.6598 147.719 67.1709 147.719 64.9351C147.719 62.6995 149.199 61.2106 151.329 61.2106C153.457 61.2106 154.85 62.7314 154.85 64.9351C154.85 67.1389 153.489 68.6598 151.329 68.6598Z" fill="#202020"/>
<path d="M171.536 65.3183C171.536 67.7628 170.736 68.775 168.786 68.775C166.834 68.775 166.093 67.7014 166.093 65.2592V57.5693H161.538V66.9275C161.538 70.5931 163.608 72.8583 166.981 72.8583C168.756 72.8583 170.59 72.023 171.506 70.802L171.802 72.4702H176.092V57.5693H171.536V65.3183Z" fill="#202020"/>
<path d="M181.774 50C180.325 50 179.169 51.1326 179.169 52.592C179.169 54.0513 180.323 55.2134 181.774 55.2134C183.225 55.2134 184.346 54.0513 184.346 52.592C184.346 51.1326 183.193 50 181.774 50Z" fill="#202020"/>
<path d="M184.081 57.5693H179.525V72.4702H184.081V57.5693Z" fill="#202020"/>
<path d="M192.065 50H187.51V72.4728H192.065V50Z" fill="#202020"/>
<path d="M206.445 50V58.9405C205.586 57.8373 203.841 57.0929 202.007 57.0929C197.509 57.0929 194.701 60.3703 194.701 65.1096C194.701 69.8489 197.452 72.8585 201.711 72.8585C203.841 72.8585 205.677 71.9348 206.474 70.5638L206.711 72.4704H211V50H206.445ZM202.807 68.6573C200.646 68.6573 199.285 67.1366 199.285 64.9328C199.285 62.7289 200.646 61.2081 202.807 61.2081C204.967 61.2081 206.416 62.6995 206.416 64.9328C206.416 67.166 204.935 68.6573 202.807 68.6573Z" fill="#202020"/>
<path d="M97.6985 78.8951C97.9887 78.7133 98.3106 78.6224 98.669 78.6224C98.8642 78.6224 99.0519 78.6494 99.2348 78.7035C99.4153 78.7575 99.5811 78.8386 99.7299 78.9467C99.8787 79.0549 100.005 79.185 100.11 79.3423C100.215 79.4995 100.288 79.6813 100.33 79.8877H101.044C100.991 79.5831 100.893 79.3104 100.752 79.0696C100.61 78.8312 100.432 78.6273 100.223 78.4603C100.01 78.2932 99.7738 78.1655 99.5128 78.0795C99.2519 77.991 98.9714 77.9492 98.6739 77.9492C98.1716 77.9492 97.7229 78.0721 97.3302 78.3202C96.9376 78.5683 96.6304 78.9197 96.406 79.3767C96.1817 79.8336 96.0695 80.3742 96.0695 81.0031C96.0695 81.632 96.1817 82.1725 96.406 82.6295C96.6304 83.0865 96.9401 83.4379 97.3302 83.686C97.7229 83.9341 98.1692 84.057 98.6739 84.057C98.9714 84.057 99.2519 84.0128 99.5128 83.9268C99.7762 83.8383 100.013 83.713 100.223 83.5459C100.435 83.3789 100.61 83.175 100.752 82.9342C100.893 82.6934 100.991 82.4231 101.044 82.1185H100.33C100.288 82.3225 100.215 82.5043 100.11 82.6639C100.005 82.8211 99.8787 82.9538 99.7299 83.062C99.5811 83.17 99.4153 83.2512 99.2348 83.3051C99.0544 83.3592 98.8666 83.3863 98.669 83.3863C98.313 83.3863 97.9887 83.2954 97.6985 83.1136C97.4082 82.9317 97.1791 82.6639 97.0108 82.3101C96.8401 81.9563 96.7548 81.5215 96.7548 81.0055C96.7548 80.4897 96.8401 80.0572 97.0108 79.7035C97.1815 79.3497 97.4107 79.0818 97.6985 78.9" fill="#202020"/>
<path d="M107.279 78.3202C106.887 78.0721 106.44 77.9492 105.935 77.9492C105.431 77.9492 104.984 78.0721 104.592 78.3202C104.199 78.5683 103.892 78.9197 103.668 79.3767C103.443 79.8336 103.331 80.3767 103.331 81.0031C103.331 81.6296 103.443 82.1725 103.668 82.6295C103.892 83.0865 104.202 83.4379 104.592 83.686C104.984 83.9341 105.431 84.057 105.935 84.057C106.44 84.057 106.887 83.9341 107.279 83.686C107.672 83.4379 107.979 83.0865 108.203 82.6295C108.428 82.1725 108.54 81.6296 108.54 81.0031C108.54 80.3767 108.428 79.8336 108.203 79.3767C107.979 78.9197 107.669 78.5683 107.279 78.3202ZM107.594 82.3052C107.423 82.659 107.194 82.9268 106.906 83.1086C106.616 83.2904 106.294 83.3813 105.935 83.3813C105.577 83.3813 105.255 83.2904 104.967 83.1086C104.677 82.9268 104.448 82.659 104.277 82.3052C104.107 81.9515 104.021 81.5165 104.021 81.0031C104.021 80.4897 104.107 80.0547 104.277 79.701C104.448 79.3472 104.677 79.0793 104.967 78.8976C105.255 78.7158 105.579 78.6249 105.935 78.6249C106.292 78.6249 106.616 78.7158 106.906 78.8976C107.196 79.0793 107.426 79.3472 107.594 79.701C107.765 80.0547 107.85 80.4897 107.85 81.0031C107.85 81.5165 107.765 81.9515 107.594 82.3052Z" fill="#202020"/>
<path d="M115.138 82.7081H115.079L111.853 78.0303H111.16V83.9759H111.875V79.3079H111.933L115.147 83.9759H115.84V78.0303H115.138V82.7081Z" fill="#202020"/>
<path d="M122.053 81.1849C121.879 81.0621 121.696 80.9638 121.509 80.8925C121.318 80.8213 121.148 80.7648 120.994 80.7231L120.394 80.5609C120.284 80.5314 120.165 80.4945 120.033 80.4454C119.902 80.3963 119.777 80.3373 119.658 80.2636C119.538 80.1899 119.441 80.0941 119.365 79.9811C119.29 79.868 119.25 79.7329 119.25 79.5732C119.25 79.384 119.304 79.2146 119.414 79.0646C119.521 78.9148 119.675 78.7993 119.87 78.7133C120.065 78.6273 120.292 78.5856 120.555 78.5856C120.911 78.5856 121.214 78.6666 121.46 78.8288C121.706 78.9909 121.845 79.2194 121.882 79.5143H122.572C122.562 79.2146 122.47 78.9467 122.296 78.7108C122.123 78.475 121.887 78.2883 121.592 78.1531C121.296 78.0155 120.958 77.9492 120.577 77.9492C120.197 77.9492 119.86 78.018 119.555 78.1556C119.25 78.2932 119.009 78.4873 118.829 78.7354C118.648 78.9836 118.56 79.2759 118.56 79.6076C118.56 80.008 118.695 80.3323 118.963 80.5806C119.231 80.8287 119.597 81.0179 120.058 81.153L120.784 81.3618C120.992 81.4208 121.184 81.4871 121.365 81.5657C121.543 81.6443 121.687 81.7451 121.796 81.8679C121.906 81.9908 121.96 82.1529 121.96 82.3495C121.96 82.5656 121.896 82.7548 121.77 82.917C121.643 83.0791 121.472 83.2045 121.253 83.2954C121.036 83.3863 120.792 83.4305 120.519 83.4305C120.284 83.4305 120.065 83.396 119.863 83.3248C119.66 83.2536 119.492 83.1455 119.363 83.0005C119.231 82.8556 119.155 82.6689 119.136 82.4452H118.397C118.419 82.7695 118.519 83.057 118.695 83.3027C118.87 83.5484 119.112 83.7401 119.421 83.8776C119.729 84.0152 120.094 84.084 120.519 84.084C120.972 84.084 121.358 84.0078 121.675 83.8555C121.991 83.7032 122.235 83.4968 122.401 83.2363C122.567 82.976 122.65 82.686 122.65 82.3642C122.65 82.0866 122.594 81.8507 122.479 81.6591C122.365 81.4675 122.223 81.3102 122.048 81.1874" fill="#202020"/>
<path d="M124.815 78.6691H126.671V83.9759H127.386V78.6691H129.242V78.0303H124.815V78.6691Z" fill="#202020"/>
<path d="M134.799 81.4208C135.094 81.2659 135.311 81.0546 135.452 80.7844C135.594 80.5142 135.665 80.2021 135.665 79.8533C135.665 79.5044 135.594 79.1899 135.452 78.9148C135.311 78.6396 135.092 78.4234 134.794 78.2662C134.499 78.1089 134.121 78.0303 133.66 78.0303H131.665V83.9759H132.38V81.6542H133.67C133.721 81.6542 133.767 81.6493 133.819 81.6468L135.065 83.9759H135.894L134.56 81.5239C134.643 81.4944 134.723 81.4625 134.797 81.4232M132.38 78.6691H133.636C133.955 78.6691 134.211 78.7182 134.406 78.8165C134.601 78.9148 134.74 79.0524 134.831 79.2292C134.918 79.4061 134.962 79.6149 134.962 79.8533C134.962 80.0916 134.918 80.2955 134.831 80.4675C134.743 80.6394 134.604 80.7722 134.409 80.8631C134.214 80.954 133.963 81.0031 133.648 81.0031H132.38V78.6691Z" fill="#202020"/>
<path d="M142.103 81.9067C142.103 82.1966 142.04 82.4546 141.915 82.6806C141.789 82.9066 141.608 83.0836 141.372 83.2113C141.135 83.3391 140.852 83.4054 140.525 83.4054C140.199 83.4054 139.916 83.3414 139.679 83.2113C139.445 83.0836 139.262 82.9066 139.135 82.6806C139.009 82.4546 138.945 82.1966 138.945 81.9067V78.0273H138.231V81.9632C138.231 82.371 138.326 82.7322 138.513 83.0491C138.704 83.3685 138.97 83.6191 139.313 83.8009C139.657 83.9827 140.062 84.0761 140.523 84.0761C140.984 84.0761 141.389 83.9852 141.733 83.8009C142.076 83.6191 142.342 83.366 142.532 83.0491C142.723 82.7297 142.815 82.3685 142.815 81.9632V78.0273H142.101V81.9067H142.103Z" fill="#202020"/>
<path d="M147.044 78.8951C147.335 78.7133 147.656 78.6224 148.015 78.6224C148.21 78.6224 148.398 78.6494 148.581 78.7035C148.761 78.7575 148.927 78.8386 149.076 78.9467C149.224 79.0549 149.351 79.185 149.456 79.3423C149.561 79.4995 149.634 79.6813 149.676 79.8877H150.39C150.337 79.5831 150.239 79.3104 150.098 79.0696C149.956 78.8312 149.778 78.6273 149.569 78.4603C149.356 78.2932 149.12 78.1655 148.858 78.0795C148.598 77.991 148.317 77.9492 148.02 77.9492C147.517 77.9492 147.069 78.0721 146.676 78.3202C146.283 78.5683 145.976 78.9197 145.752 79.3767C145.527 79.8336 145.415 80.3742 145.415 81.0031C145.415 81.632 145.527 82.1725 145.752 82.6295C145.976 83.0865 146.286 83.4379 146.676 83.686C147.069 83.9341 147.515 84.057 148.02 84.057C148.317 84.057 148.598 84.0128 148.858 83.9268C149.122 83.8383 149.359 83.713 149.569 83.5459C149.78 83.3789 149.956 83.175 150.098 82.9342C150.239 82.6934 150.337 82.4231 150.39 82.1185H149.676C149.634 82.3225 149.561 82.5043 149.456 82.6639C149.351 82.8211 149.224 82.9538 149.076 83.062C148.927 83.17 148.761 83.2512 148.581 83.3051C148.4 83.3592 148.212 83.3863 148.015 83.3863C147.659 83.3863 147.335 83.2954 147.044 83.1136C146.754 82.9317 146.525 82.6639 146.357 82.3101C146.186 81.9563 146.101 81.5215 146.101 81.0055C146.101 80.4897 146.186 80.0572 146.357 79.7035C146.527 79.3497 146.757 79.0818 147.044 78.9" fill="#202020"/>
<path d="M152.446 78.6691H154.302V83.9759H155.016V78.6691H156.873V78.0303H152.446V78.6691Z" fill="#202020"/>
<path d="M160.012 78.0303H159.298V83.9759H160.012V78.0303Z" fill="#202020"/>
<path d="M166.594 78.3202C166.202 78.0721 165.755 77.9492 165.25 77.9492C164.746 77.9492 164.3 78.0721 163.906 78.3202C163.514 78.5683 163.207 78.9197 162.982 79.3767C162.758 79.8336 162.646 80.3767 162.646 81.0031C162.646 81.6296 162.758 82.1725 162.982 82.6295C163.207 83.0865 163.517 83.4379 163.906 83.686C164.3 83.9341 164.746 84.057 165.25 84.057C165.755 84.057 166.202 83.9341 166.594 83.686C166.986 83.4379 167.294 83.0865 167.518 82.6295C167.743 82.1725 167.854 81.6296 167.854 81.0031C167.854 80.3767 167.743 79.8336 167.518 79.3767C167.294 78.9197 166.984 78.5683 166.594 78.3202ZM166.908 82.3052C166.738 82.659 166.509 82.9268 166.221 83.1086C165.93 83.2904 165.609 83.3813 165.25 83.3813C164.892 83.3813 164.57 83.2904 164.282 83.1086C163.992 82.9268 163.762 82.659 163.592 82.3052C163.421 81.9515 163.336 81.5165 163.336 81.0031C163.336 80.4897 163.421 80.0547 163.592 79.701C163.762 79.3472 163.992 79.0793 164.282 78.8976C164.57 78.7158 164.894 78.6249 165.25 78.6249C165.607 78.6249 165.93 78.7158 166.221 78.8976C166.511 79.0793 166.741 79.3472 166.908 79.701C167.079 80.0547 167.165 80.4897 167.165 81.0031C167.165 81.5165 167.079 81.9515 166.908 82.3052Z" fill="#202020"/>
<path d="M174.452 82.7081H174.396L171.167 78.0303H170.477V83.9759H171.191V79.3079H171.248L174.464 83.9759H175.157V78.0303H174.452V82.7081Z" fill="#202020"/>
<path d="M86.0515 55.8059V51.6514L83.8518 50.0986L57 69.0385V73.193L59.1997 74.7457L86.0515 55.8059Z" fill="#202020"/>
<path d="M86.0515 60.8789L83.8518 59.3262L57 78.266V82.4229L59.2021 83.9758L86.0515 65.0334V60.8789Z" fill="#202020"/>
</g>
<defs>
<clipPath id="clip0_1317_13">
<rect width="154" height="35" fill="white" transform="translate(57 50)"/>
</clipPath>
</defs>
</svg>
