<svg width="268" height="134" viewBox="0 0 268 134" fill="none" xmlns="http://www.w3.org/2000/svg">
<rect width="268" height="134" fill="white"/>
<g clip-path="url(#clip0_1278_37)">
<path d="M56.9999 78.4658V52.2881H63.4523C67.7529 52.2881 69.9036 54.7813 69.9045 59.7678C69.9045 61.8999 69.3501 63.5238 68.2413 64.6396C67.1326 65.7555 65.5363 66.3127 63.4523 66.3114H60.6866V78.4658H56.9999ZM60.6873 63.507H61.6082C62.2953 63.5184 62.9821 63.4697 63.6609 63.3616C64.1629 63.2761 64.6429 63.0894 65.0727 62.8126C65.4836 62.5411 65.7929 62.1377 65.9511 61.6669C66.1459 61.0537 66.236 60.4111 66.2172 59.7671C66.2338 59.0049 66.1664 58.2431 66.0163 57.496C65.9044 56.9603 65.6474 56.4668 65.2742 56.0712C64.8892 55.6868 64.4049 55.4206 63.8772 55.3034C63.1313 55.1457 62.37 55.075 61.6082 55.0925H60.6873V63.507Z" fill="#202020"/>
<path d="M71.9932 53.2236H75.6799V56.9628H71.9932V53.2236ZM71.9932 59.7685H75.6799V78.4698H71.9932V59.7685Z" fill="#202020"/>
<path d="M82.9104 52.2881H79.2238V78.4665H82.9104V52.2881Z" fill="#202020"/>
<path d="M95.6289 76.9762C94.7742 78.1449 93.3577 78.7295 91.3797 78.7299C89.4016 78.7303 87.9852 78.1458 87.1305 76.9762C86.2758 75.8076 85.8484 74.1227 85.8484 71.9216V66.3115C85.8484 64.1113 86.2758 62.4267 87.1305 61.2576C87.9852 60.0885 89.4016 59.5039 91.3797 59.5039C93.3573 59.5039 94.7738 60.0885 95.6289 61.2576C96.484 62.4267 96.9114 64.1113 96.9109 66.3115V71.9216C96.9109 74.1227 96.4836 75.8076 95.6289 76.9762ZM90.6957 75.5442C91.1389 75.7005 91.6211 75.7005 92.0643 75.5442C92.2422 75.478 92.4078 75.3816 92.5539 75.2592C92.6995 75.1226 92.8103 74.9522 92.8769 74.7627C92.9641 74.5432 93.0305 74.3507 93.0783 74.1856C93.1373 73.9511 93.1711 73.7108 93.1791 73.4689C93.1984 73.1578 93.2107 72.9115 93.2152 72.732C93.2198 72.5525 93.223 72.2813 93.223 71.921V66.3115C93.223 65.9519 93.223 65.682 93.2152 65.5005C93.2075 65.3191 93.1984 65.0754 93.1791 64.7629C93.1709 64.5217 93.1371 64.2821 93.0783 64.0482C93.0305 63.8831 92.9641 63.6899 92.8769 63.4704C92.8099 63.2811 92.6991 63.1109 92.5539 62.9739C92.4073 62.852 92.2419 62.7555 92.0643 62.6882C91.621 62.5329 91.139 62.5329 90.6957 62.6882C90.5178 62.7552 90.3522 62.8518 90.2055 62.9739C90.0601 63.1107 89.9493 63.281 89.8825 63.4704C89.7966 63.6899 89.7289 63.8831 89.6811 64.0482C89.623 64.2822 89.5892 64.5218 89.5803 64.7629C89.5616 65.0754 89.5487 65.321 89.5435 65.5005C89.5384 65.68 89.5364 65.9512 89.5364 66.3115V71.9216C89.5364 72.2815 89.5388 72.5518 89.5435 72.7326C89.5487 72.9121 89.561 73.1584 89.5803 73.4696C89.5891 73.7114 89.6229 73.9516 89.6811 74.1862C89.7289 74.3513 89.7966 74.5439 89.8825 74.7634C89.949 74.9529 90.0598 75.1233 90.2055 75.2599C90.3517 75.3826 90.5175 75.4789 90.6957 75.5449" fill="#202020"/>
<path d="M105.048 78.7318C103.598 78.7318 102.543 78.3569 101.883 77.6071C101.152 76.6322 100.792 75.423 100.868 74.2006V62.5729H99.0248V59.7685H100.868V53.2236H104.555V59.7685H107.32V62.5729H104.555V73.4859C104.519 74.0531 104.623 74.6205 104.857 75.1368C104.996 75.3282 105.183 75.478 105.399 75.5702C105.616 75.6625 105.852 75.6938 106.084 75.6608C106.5 75.6448 106.914 75.5959 107.322 75.5147V78.5537C106.568 78.6584 105.809 78.717 105.048 78.7292" fill="#202020"/>
<path d="M157.386 78.4664V52.2881H167.526V55.0925H161.074V63.5077H165.682V66.3121H161.074V75.6614H167.526V78.4664H157.386Z" fill="#202020"/>
<path d="M170.57 78.4672L174.257 69.1179V68.7379L170.57 59.7686H174.127L176.591 66.909L179.053 59.7686H182.554L178.867 68.7379V69.1179L182.554 78.4672H178.867L176.677 71.2653L174.258 78.4672H170.57Z" fill="#202020"/>
<path d="M185.408 84.0763V59.7668H189.095V61.6378C189.393 61.3161 189.6 61.0967 189.714 60.9827C189.828 60.8687 190.029 60.6866 190.312 60.4429C190.534 60.2409 190.781 60.0689 191.047 59.9312C191.303 59.815 191.568 59.7197 191.84 59.6463C192.165 59.5533 192.502 59.5066 192.841 59.5074C193.416 59.4974 193.986 59.6143 194.512 59.85C194.959 60.0512 195.369 60.3305 195.721 60.6754C196.083 61.0728 196.358 61.5435 196.528 62.0563C196.729 62.5875 196.894 63.1315 197.024 63.6849C197.156 64.335 197.241 64.994 197.277 65.6567C197.334 66.4864 197.367 67.1561 197.377 67.6658C197.388 68.1755 197.392 68.879 197.391 69.7765V70.0542C197.393 70.8448 197.353 71.6349 197.27 72.4211C197.184 73.2036 197.034 73.9777 196.822 74.7354C196.636 75.4478 196.36 76.1329 196.002 76.774C195.676 77.3431 195.222 77.8259 194.677 78.1831C194.113 78.5523 193.454 78.7431 192.783 78.7315C191.534 78.7315 190.305 78.0838 189.095 76.7885V84.0789L185.408 84.0763ZM191.862 75.6617C192.047 75.6655 192.232 75.6283 192.402 75.5526C192.573 75.477 192.725 75.3646 192.848 75.2235C193.143 74.8647 193.342 74.4342 193.424 73.9742C193.542 73.445 193.624 72.908 193.669 72.3673C193.712 71.8371 193.733 71.2163 193.733 70.5049L193.704 68.0366C193.704 67.5998 193.701 67.2468 193.696 66.9773C193.692 66.7079 193.675 66.3524 193.645 65.9108C193.626 65.5458 193.585 65.1823 193.524 64.8221C193.462 64.5061 193.383 64.194 193.286 63.8873C193.206 63.5989 193.077 63.3269 192.905 63.0835C192.747 62.8807 192.551 62.7119 192.328 62.587C192.085 62.4481 191.809 62.3774 191.529 62.3819C191.392 62.3814 191.255 62.3912 191.119 62.4114C190.982 62.4319 190.847 62.4637 190.715 62.5064C190.576 62.5496 190.462 62.5889 190.37 62.6236C190.249 62.6712 190.131 62.7273 190.018 62.7914L189.708 62.959C189.644 62.9938 189.538 63.0593 189.385 63.1556C189.233 63.2519 189.135 63.3121 189.097 63.3311V74.9012C189.933 75.4056 190.889 75.6684 191.862 75.6611" fill="#202020"/>
<path d="M209.719 76.9762C208.863 78.1449 207.447 78.7295 205.469 78.7299C203.492 78.7303 202.076 78.1458 201.22 76.9762C200.365 75.8076 199.938 74.1227 199.939 71.9216V66.3115C199.939 64.1113 200.366 62.4267 201.22 61.2576C202.074 60.0885 203.491 59.5039 205.469 59.5039C207.447 59.5039 208.863 60.0885 209.719 61.2576C210.574 62.4267 211.001 64.1113 211 66.3115V71.9216C211 74.1227 210.573 75.8076 209.719 76.9762ZM204.785 75.5442C205.228 75.7005 205.71 75.7005 206.153 75.5442C206.332 75.4779 206.498 75.3816 206.644 75.2592C206.79 75.1224 206.9 74.9521 206.967 74.7627C207.053 74.5443 207.121 74.352 207.169 74.1856C207.228 73.951 207.261 73.7107 207.269 73.4689C207.289 73.1578 207.301 72.9115 207.306 72.732C207.31 72.5525 207.313 72.2813 207.313 71.921V66.3115C207.313 65.9519 207.313 65.682 207.306 65.5005C207.298 65.3191 207.289 65.0754 207.269 64.7629C207.261 64.5218 207.227 64.2822 207.169 64.0482C207.121 63.8831 207.054 63.6899 206.967 63.4704C206.9 63.2812 206.789 63.111 206.644 62.9739C206.497 62.8521 206.331 62.7556 206.153 62.6882C205.71 62.5329 205.228 62.5329 204.785 62.6882C204.607 62.7556 204.441 62.8521 204.295 62.9739C204.149 63.111 204.039 63.2812 203.972 63.4704C203.886 63.6899 203.819 63.8831 203.77 64.0482C203.712 64.2822 203.678 64.5218 203.669 64.7629C203.65 65.0752 203.638 65.321 203.633 65.5005C203.628 65.6813 203.626 65.9512 203.626 66.3115V71.9216C203.626 72.2815 203.628 72.5518 203.633 72.7326C203.638 72.9121 203.65 73.1584 203.669 73.4696C203.678 73.7114 203.712 73.9516 203.77 74.1862C203.818 74.3517 203.885 74.5441 203.972 74.7634C204.038 74.9528 204.149 75.1231 204.295 75.2599C204.441 75.3822 204.607 75.4786 204.785 75.5449" fill="#202020"/>
<path d="M116.19 58.4249C115.078 60.5049 114.382 62.7869 114.141 65.1402C113.899 67.4935 114.118 69.872 114.784 72.1395C115.449 74.4071 116.55 76.5192 118.021 78.3551C119.493 80.1909 121.307 81.7145 123.359 82.8385L123.521 82.9283L123.563 82.9512C123.585 82.9093 123.627 82.9322 123.667 82.9512C123.67 82.9455 123.674 82.9404 123.678 82.9363C123.683 82.9322 123.689 82.9292 123.695 82.9274C123.701 82.9256 123.707 82.9251 123.714 82.926C123.72 82.9268 123.726 82.9289 123.731 82.9322C123.822 82.9401 123.913 82.9359 124.002 82.9198L124.067 82.9014C124.166 82.8728 124.259 82.824 124.34 82.758C124.421 82.6921 124.487 82.6103 124.536 82.5175C124.647 82.3091 124.673 82.0644 124.606 81.8371C124.54 81.6098 124.387 81.4184 124.182 81.305C122.309 80.3013 120.65 78.9305 119.303 77.2722C117.955 75.6138 116.946 73.7008 116.332 71.6439C115.719 69.587 115.514 67.4271 115.729 65.2893C115.944 63.1514 116.575 61.0781 117.586 59.1895C118.597 57.3009 119.967 55.6344 121.617 54.2865C123.268 52.9387 125.165 51.9364 127.2 51.3375C129.235 50.7387 131.366 50.5552 133.472 50.7977C135.577 51.0403 137.614 51.7041 139.464 52.7506C139.669 52.8637 139.911 52.8894 140.135 52.8222C140.359 52.7551 140.547 52.6004 140.659 52.3923C140.735 52.2661 140.777 52.1222 140.782 51.9744C140.787 51.8267 140.754 51.6803 140.687 51.5492L140.645 51.5256C140.57 51.3759 140.451 51.2537 140.304 51.1765C136.157 48.903 131.291 48.3892 126.772 49.7476C122.253 51.106 118.449 54.2258 116.193 58.4236M147.43 60.4603C147.585 60.3865 147.714 60.2679 147.802 60.1195C147.89 59.971 147.933 59.7995 147.925 59.6264C147.917 59.4534 147.858 59.2867 147.757 59.1474C147.655 59.008 147.515 58.9024 147.355 58.8437C147.194 58.7851 147.02 58.7761 146.854 58.8179C146.688 58.8597 146.539 58.9504 146.424 59.0786C146.309 59.2067 146.234 59.3666 146.208 59.5379C146.183 59.7092 146.208 59.8843 146.281 60.0411C146.343 60.2216 146.472 60.37 146.642 60.4537C146.762 60.5218 146.897 60.558 147.035 60.5592C147.173 60.5603 147.309 60.5263 147.43 60.4603ZM133.186 84.1173C133.197 84.2569 133.242 84.3914 133.318 84.5082C133.395 84.6251 133.499 84.7205 133.621 84.7854C133.789 84.864 133.975 84.8926 134.159 84.868C134.271 84.8524 134.38 84.8144 134.477 84.7564C134.575 84.6983 134.661 84.6213 134.73 84.5297C134.798 84.438 134.848 84.3336 134.877 84.2223C134.906 84.111 134.913 83.9951 134.897 83.8811C134.882 83.7671 134.845 83.6573 134.787 83.558C134.73 83.4586 134.654 83.3717 134.564 83.3022C134.474 83.2326 134.371 83.1818 134.261 83.1526C134.151 83.1234 134.037 83.1164 133.924 83.132C133.809 83.1391 133.697 83.1713 133.595 83.2265C133.493 83.2817 133.404 83.3585 133.334 83.4518C133.264 83.5451 133.214 83.6526 133.189 83.767C133.164 83.8814 133.163 83.9999 133.187 84.1146M144.812 57.3546C144.962 57.4452 145.138 57.4832 145.311 57.4626C145.484 57.442 145.646 57.3639 145.771 57.2406C145.908 57.1308 146.011 56.9822 146.065 56.8134C146.119 56.6447 146.123 56.4635 146.075 56.2927C146.028 56.1219 145.931 55.9692 145.798 55.854C145.665 55.7388 145.502 55.6661 145.328 55.6453C145.154 55.6245 144.978 55.6564 144.822 55.737C144.667 55.8176 144.538 55.9433 144.452 56.0982C144.367 56.2531 144.329 56.4302 144.343 56.607C144.357 56.7839 144.422 56.9526 144.53 57.0919C144.609 57.1951 144.705 57.2837 144.813 57.3539M130.558 83.2047C130.323 83.212 130.097 83.3003 129.918 83.4551C129.739 83.61 129.618 83.822 129.574 84.0563C129.56 84.225 129.595 84.3942 129.675 84.5429C129.755 84.6916 129.876 84.8135 130.023 84.8935C130.14 84.9482 130.266 84.9811 130.395 84.9905C130.628 85.0122 130.86 84.9392 131.04 84.7875C131.221 84.6359 131.334 84.4179 131.356 84.1814C131.369 84.0638 131.358 83.9449 131.325 83.8316C131.291 83.7183 131.235 83.613 131.161 83.522C131.086 83.431 130.994 83.3562 130.891 83.3019C130.787 83.2476 130.674 83.215 130.558 83.206M127.273 82.6302C127.053 82.5623 126.815 82.5841 126.61 82.6911C126.405 82.7981 126.249 82.9819 126.175 83.2034C126.106 83.3947 126.109 83.6053 126.183 83.7947C126.257 83.9841 126.398 84.1388 126.578 84.2292L126.74 84.319C126.961 84.3909 127.201 84.3708 127.407 84.2633C127.613 84.1558 127.769 83.9697 127.84 83.7458C127.911 83.522 127.891 83.2787 127.785 83.0696C127.679 82.8605 127.495 82.7027 127.275 82.6308M148.265 71.0431C148.379 71.0658 148.496 71.065 148.61 71.0408C148.723 71.0166 148.831 70.9695 148.926 70.9022C149.021 70.835 149.102 70.749 149.163 70.6494C149.225 70.5498 149.266 70.4386 149.285 70.3225C149.305 70.2071 149.302 70.0887 149.278 69.9742C149.253 69.8597 149.206 69.7513 149.14 69.6552C149.073 69.559 148.989 69.477 148.892 69.4139C148.794 69.3508 148.686 69.3077 148.572 69.2872C148.458 69.2666 148.341 69.2691 148.228 69.2943C148.115 69.3195 148.009 69.3671 147.914 69.4342C147.819 69.5013 147.738 69.5867 147.676 69.6855C147.614 69.7843 147.571 69.8946 147.551 70.0101C147.52 70.1949 147.547 70.3848 147.627 70.5537C147.707 70.7225 147.837 70.862 147.999 70.9527C148.077 71.005 148.167 71.0372 148.261 71.0464L148.265 71.0431ZM137.147 82.3354C137.036 82.3726 136.933 82.4317 136.845 82.5093C136.757 82.5869 136.685 82.6815 136.633 82.7876C136.581 82.8937 136.551 83.0092 136.543 83.1273C136.536 83.2455 136.551 83.364 136.589 83.4759C136.677 83.6813 136.823 83.8552 137.009 83.9751C137.116 84.0328 137.234 84.0683 137.355 84.0795C137.475 84.0908 137.597 84.0775 137.713 84.0406C137.928 83.9582 138.103 83.7945 138.201 83.5839C138.299 83.3733 138.313 83.1323 138.24 82.9115C138.166 82.6908 138.011 82.5076 137.807 82.4005C137.603 82.2934 137.366 82.2708 137.146 82.3374M148.755 67.4579C148.924 67.4506 149.087 67.3925 149.224 67.2907C149.36 67.189 149.464 67.0483 149.521 66.8867C149.579 66.7251 149.587 66.5498 149.546 66.3832C149.505 66.2166 149.415 66.0662 149.289 65.9513C149.164 65.8363 149.007 65.762 148.839 65.7378C148.671 65.7136 148.5 65.7407 148.348 65.8154C148.195 65.8902 148.068 66.0093 147.983 66.1577C147.897 66.306 147.858 66.4768 147.868 66.6482C147.867 66.8013 147.908 66.9516 147.988 67.0813C148.069 67.211 148.184 67.3147 148.32 67.3799C148.454 67.4487 148.605 67.4756 148.754 67.4572M142.381 54.7879C142.554 54.892 142.758 54.9274 142.955 54.8874C143.152 54.8473 143.327 54.7346 143.447 54.5711C143.557 54.4354 143.624 54.2697 143.641 54.0951C143.658 53.9204 143.623 53.7447 143.541 53.5902C143.459 53.4356 143.334 53.3092 143.181 53.2269C143.028 53.1446 142.855 53.1101 142.683 53.1278C142.511 53.1456 142.348 53.2147 142.214 53.3265C142.081 53.4382 141.983 53.5876 141.934 53.7557C141.884 53.9238 141.885 54.1031 141.936 54.2707C141.987 54.4384 142.086 54.5869 142.22 54.6975L142.381 54.7879ZM147.088 74.4168C147.25 74.4853 147.429 74.5036 147.601 74.4692C147.773 74.4348 147.932 74.3493 148.056 74.2235C148.18 74.0977 148.265 73.9374 148.3 73.7627C148.334 73.588 148.317 73.4069 148.25 73.2423C148.183 73.0776 148.069 72.9369 147.923 72.8379C147.777 72.7388 147.605 72.686 147.429 72.686C147.254 72.686 147.082 72.7388 146.936 72.8379C146.79 72.9369 146.676 73.0776 146.609 73.2422C146.521 73.4467 146.514 73.6776 146.588 73.8876C146.662 74.0977 146.812 74.2713 147.008 74.3729L147.088 74.4168ZM145.243 77.4721L145.327 77.5179C145.517 77.6287 145.742 77.6617 145.956 77.6102C146.17 77.5588 146.356 77.4267 146.478 77.2409C146.577 77.0943 146.632 76.921 146.634 76.743C146.637 76.565 146.587 76.3903 146.492 76.2408C146.396 76.0914 146.259 75.9741 146.098 75.9036C145.937 75.8332 145.759 75.8128 145.586 75.8451C145.413 75.8773 145.254 75.9607 145.128 76.0848C145.002 76.2089 144.916 76.368 144.879 76.5421C144.842 76.7162 144.857 76.8974 144.922 77.0628C144.987 77.2282 145.099 77.3711 145.243 77.4721ZM148.498 63.887C148.668 63.843 148.821 63.7488 148.938 63.6165C149.055 63.4841 149.131 63.3194 149.156 63.1433C149.181 62.9672 149.154 62.7876 149.078 62.6271C149.002 62.4667 148.881 62.3326 148.731 62.2419C148.58 62.1512 148.406 62.1079 148.231 62.1175C148.055 62.127 147.887 62.1891 147.747 62.2958C147.606 62.4025 147.5 62.549 147.442 62.7168C147.384 62.8846 147.376 63.0661 147.419 63.2385C147.452 63.357 147.507 63.4677 147.582 63.5643C147.657 63.6609 147.75 63.7415 147.856 63.8012C147.952 63.8581 148.058 63.895 148.168 63.9096C148.279 63.9242 148.391 63.917 148.498 63.887ZM141.4 81.1962C141.348 81.0961 141.275 81.0081 141.188 80.9375C141.1 80.8669 140.999 80.8153 140.891 80.7858C140.783 80.7563 140.671 80.7497 140.56 80.7662C140.449 80.7827 140.343 80.822 140.248 80.8818C140.051 81.0088 139.911 81.2088 139.856 81.4392C139.802 81.6695 139.838 81.9123 139.958 82.116C140.023 82.2531 140.127 82.3672 140.257 82.4435C140.387 82.5189 140.535 82.5574 140.685 82.5551C140.835 82.5528 140.982 82.5097 141.11 82.4304C141.307 82.3035 141.447 82.1037 141.502 81.8734C141.556 81.6431 141.52 81.4005 141.4 81.1969M142.788 80.0833C142.633 79.9079 142.552 79.6788 142.56 79.4438C142.568 79.2088 142.665 78.9861 142.832 78.8222C142.95 78.7105 143.097 78.6342 143.255 78.6016C143.414 78.569 143.578 78.5813 143.731 78.6374C143.883 78.6934 144.017 78.7909 144.118 78.9192C144.219 79.0474 144.283 79.2014 144.303 79.3643C144.323 79.5271 144.299 79.6925 144.232 79.8422C144.166 79.9918 144.06 80.12 143.927 80.2126C143.793 80.3052 143.637 80.3587 143.475 80.3671C143.314 80.3754 143.153 80.3384 143.011 80.2601C142.923 80.2208 142.846 80.16 142.787 80.0833" fill="#202020"/>
<path d="M124.752 69.8668C124.732 69.8426 124.715 69.819 124.693 69.7954L122.919 68.3602C122.884 68.3224 122.859 68.2771 122.844 68.2277C122.83 68.1784 122.827 68.1263 122.836 68.0755C122.844 68.0248 122.864 67.9768 122.894 67.9353C122.924 67.8937 122.964 67.8598 123.009 67.8361C124.009 67.3055 124.07 67.2236 124.273 67.3396L125.921 68.2874C126.043 68.3588 126.401 68.6497 126.507 68.5547C127.362 67.7889 129.699 66.2161 130.363 65.7732C130.384 65.7593 130.402 65.7407 130.414 65.7188C130.427 65.6969 130.435 65.6723 130.437 65.6469C130.438 65.6216 130.434 65.5961 130.425 65.5726C130.415 65.549 130.401 65.528 130.382 65.5112L125.002 60.64C124.982 60.6218 124.967 60.5991 124.958 60.5736C124.949 60.5482 124.946 60.5208 124.949 60.4939C124.953 60.4672 124.963 60.4417 124.978 60.4197C124.994 60.3978 125.014 60.3801 125.038 60.3682L125.984 59.8821C126.181 59.7806 126.4 59.73 126.622 59.7347C126.843 59.7394 127.06 59.7992 127.253 59.909L133.722 63.5912C133.769 63.6181 133.823 63.6327 133.878 63.6335C133.933 63.6343 133.987 63.6213 134.036 63.5958L136.766 62.1925C137.55 61.7766 139.912 61.2859 140.366 62.1657L140.419 62.2732L140.473 62.3786C140.903 63.2715 139.117 64.9118 138.322 65.3068L135.59 66.7107C135.54 66.7354 135.497 66.7724 135.466 66.8182C135.434 66.864 135.414 66.917 135.407 66.9727L134.503 74.4406C134.476 74.663 134.396 74.8752 134.269 75.0586C134.142 75.242 133.973 75.3911 133.776 75.4927L132.828 75.9788C132.805 75.9913 132.779 75.9978 132.752 75.9978C132.726 75.9978 132.7 75.9913 132.676 75.9788C132.653 75.9654 132.633 75.9465 132.618 75.9237C132.603 75.9009 132.594 75.8749 132.591 75.8477L131.902 68.5658C131.899 68.5406 131.892 68.5163 131.878 68.4947C131.865 68.4732 131.847 68.4552 131.826 68.442C131.805 68.4283 131.781 68.4197 131.756 68.4169C131.731 68.4142 131.706 68.4174 131.682 68.4263C130.937 68.7074 128.304 69.6887 127.189 69.933C127.05 69.9625 127.071 70.4276 127.055 70.5697L126.834 72.478C126.807 72.7125 126.705 72.7145 125.692 73.2176C125.646 73.2399 125.596 73.2513 125.546 73.2511C125.496 73.2509 125.446 73.239 125.401 73.2163C125.355 73.1936 125.316 73.1608 125.285 73.1202C125.254 73.0797 125.233 73.0325 125.223 72.9824L125.132 70.6818C125.126 70.649 125.117 70.6208 125.11 70.5907L124.749 69.8636L124.752 69.8668Z" fill="#202020"/>
</g>
<defs>
<clipPath id="clip0_1278_37">
<rect width="154" height="36" fill="white" transform="translate(57 49)"/>
</clipPath>
</defs>
</svg>
