<svg width="268" height="134" viewBox="0 0 268 134" fill="none" xmlns="http://www.w3.org/2000/svg">
<rect width="268" height="134" fill="white"/>
<g clip-path="url(#clip0_1278_2)">
<path d="M187.12 55.6954V58.7141H190.251V61.5169H187.12V64.5356H184.314V61.5169H181.291V58.7141H184.314V55.6954H187.12ZM176.756 53.7549V66.3685H194.676V53.7549H176.756Z" fill="#202020"/>
<path d="M158.84 71.5428L161.539 63.0254H161.646L164.129 71.5428H158.84ZM147.183 81.4612H155.711L157.004 77.5802H165.749L166.936 81.4612H175.787L165.64 53.7547H157.327L147.183 81.4612ZM137.576 81.4612H142.973V66.1524H131.747V72.0816H135.525C135.094 74.1297 133.151 75.1003 131.1 75.1003C125.919 75.1003 124.84 70.5722 124.84 67.9853C124.84 66.1524 124.732 59.8997 130.453 59.8997C131.426 59.888 132.369 60.2325 133.105 60.8682C133.841 61.5038 134.318 62.3865 134.446 63.3496H142.649C141.354 56.7734 137.037 53 129.912 53C123.76 53 116.312 57.2045 116.312 67.6618C116.312 75.4238 121.277 81.8924 129.481 81.8924C132.503 81.8924 135.417 80.9218 137.252 78.3349L137.576 81.4612ZM111.778 81.4612V53.7547H103.251V81.3542L111.778 81.4618V81.4612ZM74 72.0816C74 80.9218 83.0666 82 86.0891 82C92.2416 82 98.8259 79.6283 98.8259 72.5127C98.8259 67.4459 94.9401 65.613 91.0544 64.5348C87.1686 63.5642 83.1719 63.0255 83.0666 60.9773C83.0666 59.468 84.9018 59.1444 86.0891 59.1444C86.9776 59.1122 87.8515 59.3779 88.5714 59.8991C88.9469 60.1032 89.2452 60.4245 89.4206 60.8139C89.596 61.2034 89.6388 61.6395 89.5425 62.0555H97.6399C97.4225 55.4793 92.1339 53.1076 86.0891 53.1076C80.3681 53.1076 74.9711 55.8028 74.9711 62.272C74.9711 67.77 79.9365 69.0641 84.3617 70.2499C89.1108 71.5415 90.2981 72.0828 90.2981 73.4839C90.2981 75.532 88.1391 75.9632 86.7363 75.9632C85.2251 75.9632 83.2822 75.6397 82.6343 73.9151C82.4133 73.3295 82.3034 72.7079 82.3104 72.0822L74 72.0816Z" fill="#202020"/>
<path d="M178.379 75.9626V71.5428H176.866V70.8958C177.088 70.9134 177.312 70.8764 177.516 70.7882C177.624 70.7882 177.948 70.6805 178.056 70.6805C178.164 70.5729 178.38 70.4646 178.487 70.25C178.593 70.1405 178.593 69.8176 178.701 69.71H179.241V75.855L178.379 75.9626Z" fill="#202020"/>
<path d="M181.724 75.2083C181.953 75.3435 182.213 75.4178 182.479 75.4242C182.674 75.4252 182.866 75.3762 183.036 75.2819C183.206 75.1875 183.349 75.0509 183.451 74.8854C183.708 74.3066 183.854 73.6849 183.882 73.0525C183.724 73.3193 183.501 73.5417 183.234 73.6989C182.966 73.8335 182.671 73.9073 182.372 73.9148C182.048 73.9148 181.832 73.8072 181.509 73.8072C181.27 73.7022 181.051 73.5565 180.862 73.3766C180.693 73.1784 180.549 72.9612 180.43 72.7296V71.8685C180.43 71.545 180.538 71.3297 180.538 71.1138C180.643 70.8749 180.789 70.6559 180.969 70.4668C181.168 70.2987 181.385 70.1542 181.617 70.0362C181.858 69.9471 182.115 69.9093 182.372 69.9255C182.695 69.9255 182.911 70.0332 183.127 70.0332C183.366 70.1384 183.585 70.2843 183.774 70.4643C184.021 70.6876 184.174 70.9947 184.205 71.3254C184.295 71.7874 184.332 72.2581 184.314 72.7284C184.401 73.5439 184.252 74.3673 183.883 75.1C183.707 75.3682 183.467 75.5877 183.184 75.7382C182.901 75.8888 182.584 75.9654 182.264 75.9611C181.794 75.9838 181.333 75.8302 180.971 75.5306C180.796 75.439 180.651 75.2984 180.555 75.1259C180.46 74.9534 180.416 74.7567 180.431 74.56H181.184C181.291 74.6676 181.508 74.9905 181.723 75.207M183.665 71.3273C183.557 71.2196 183.557 71.0037 183.449 70.8967C183.326 70.7636 183.18 70.654 183.018 70.5732C182.91 70.4656 182.586 70.4656 182.478 70.4656C182.37 70.4656 182.047 70.4656 181.939 70.5732C181.83 70.6808 181.615 70.6808 181.508 70.8967C181.4 71.0043 181.4 71.2202 181.291 71.3273C181.183 71.4343 181.184 71.7578 181.184 71.866C181.168 72.0177 181.206 72.1702 181.291 72.2966C181.399 72.4042 181.399 72.6201 181.508 72.7271C181.63 72.8602 181.776 72.9699 181.939 73.0506C182.07 73.1257 182.219 73.1629 182.37 73.1583C182.477 73.1583 182.801 73.1583 182.909 73.0506C183.018 72.943 183.233 72.943 183.34 72.7271C183.448 72.6195 183.448 72.5112 183.556 72.2966C183.664 72.1889 183.664 72.0807 183.664 71.866C183.772 71.6502 183.665 71.5425 183.665 71.3273Z" fill="#202020"/>
<path d="M188.74 70.6808C188.517 70.5297 188.253 70.4536 187.984 70.4637C187.72 70.4851 187.464 70.5584 187.228 70.6796C187.121 70.7872 186.905 71.1101 186.797 71.2184C186.711 71.4656 186.639 71.7176 186.581 71.973C186.485 72.2122 186.448 72.4712 186.473 72.7277C186.581 72.5118 186.905 72.2972 187.121 72.0807C187.4 71.9922 187.692 71.9557 187.983 71.973C188.2 71.973 188.523 72.0807 188.739 72.0807C188.978 72.1857 189.198 72.3313 189.387 72.5112C189.555 72.7095 189.7 72.9266 189.818 73.1583C189.907 73.4 189.944 73.6578 189.927 73.9148C189.937 74.1708 189.901 74.4265 189.819 74.6695C189.711 74.8853 189.711 75.1 189.495 75.3165C189.427 75.4327 189.333 75.5319 189.221 75.6065C189.109 75.6811 188.981 75.7291 188.847 75.747C188.544 75.8885 188.203 75.9263 187.876 75.8547C187.491 75.8634 187.113 75.7504 186.797 75.5318C186.529 75.3295 186.308 75.0721 186.149 74.7771L185.825 73.8065V72.9454C185.812 72.5122 185.848 72.0789 185.933 71.6538C186.041 71.2233 186.041 70.8991 186.364 70.6833C186.528 70.3561 186.793 70.0905 187.121 69.9261C187.465 69.7691 187.829 69.6602 188.203 69.6026C188.419 69.5918 188.635 69.6244 188.839 69.6983C189.042 69.7722 189.229 69.8861 189.387 70.0331C189.674 70.3712 189.86 70.7819 189.927 71.2196H189.065C188.933 71.0552 188.824 70.874 188.741 70.6808M187.337 72.7289C187.23 72.8366 187.014 72.8366 186.906 73.0525C186.793 73.171 186.717 73.3211 186.69 73.483C186.582 73.5906 186.582 73.9135 186.582 74.0218C186.582 74.13 186.582 74.4523 186.69 74.5606C186.798 74.6688 186.798 74.8841 186.906 74.9911C187.029 75.1243 187.175 75.2339 187.337 75.3147C187.445 75.4223 187.769 75.4223 187.877 75.4223C187.985 75.4223 188.308 75.4223 188.416 75.3147C188.525 75.207 188.74 75.207 188.847 74.9911C188.955 74.8835 188.955 74.6676 189.064 74.5606C189.161 74.3991 189.2 74.2085 189.171 74.0218C189.171 73.9142 189.171 73.5913 189.064 73.483C188.956 73.3748 188.956 73.1595 188.847 73.0525C188.725 72.9193 188.579 72.8097 188.416 72.7289C188.248 72.6509 188.063 72.614 187.877 72.6213C187.711 72.7083 187.524 72.7456 187.337 72.7289Z" fill="#202020"/>
<path d="M193.707 70.6802C193.484 70.5293 193.218 70.4538 192.949 70.4649C192.686 70.4863 192.429 70.5596 192.194 70.6808C192.086 70.7884 191.87 71.1113 191.763 71.2196C191.676 71.4668 191.604 71.7188 191.547 71.9742C191.45 72.2134 191.413 72.4724 191.439 72.7289C191.547 72.513 191.87 72.2984 192.087 72.0819C192.351 71.9414 192.658 71.9031 192.949 71.9742C193.165 71.9742 193.488 72.0819 193.704 72.0819C193.944 72.1869 194.163 72.3325 194.352 72.5124C194.52 72.7107 194.665 72.9278 194.783 73.1595C194.919 73.3884 194.993 73.6482 195 73.9141C195.01 74.1701 194.974 74.4259 194.892 74.6688C194.852 74.912 194.739 75.1374 194.569 75.3159C194.501 75.4321 194.407 75.5312 194.295 75.6058C194.183 75.6804 194.055 75.7285 193.921 75.7464C193.618 75.8879 193.276 75.9257 192.949 75.854C192.564 75.8628 192.186 75.7495 191.87 75.5305C191.602 75.3286 191.381 75.0717 191.222 74.7771L190.898 73.8065C190.815 73.49 190.778 73.163 190.79 72.8359C190.777 72.4027 190.813 71.9694 190.898 71.5443C191.006 71.1138 191.006 70.7896 191.329 70.5738C191.493 70.2471 191.758 69.982 192.085 69.8178C192.429 69.661 192.792 69.5522 193.165 69.4943C193.382 69.4832 193.598 69.5156 193.802 69.5895C194.006 69.6635 194.193 69.7775 194.352 69.9249C194.639 70.2628 194.826 70.6735 194.892 71.1113H194.138C194.03 71.1113 193.922 70.8954 193.707 70.6808M192.414 72.7289C192.306 72.8366 192.09 72.8366 191.983 73.0524C191.875 73.1601 191.875 73.2683 191.766 73.483C191.659 73.5906 191.659 73.9135 191.659 74.0218C191.659 74.13 191.659 74.4523 191.766 74.5606C191.874 74.6688 191.874 74.8841 191.983 74.9911C192.105 75.1242 192.251 75.2339 192.414 75.3146C192.521 75.4223 192.845 75.4223 192.953 75.4223C193.061 75.4223 193.384 75.4223 193.493 75.3146C193.601 75.207 193.816 75.207 193.924 74.9911C194.031 74.8835 194.031 74.6676 194.14 74.5606C194.238 74.3991 194.276 74.2084 194.247 74.0218C194.247 73.9141 194.247 73.5912 194.14 73.483C194.032 73.3747 194.032 73.1595 193.924 73.0524C193.801 72.9193 193.655 72.8097 193.493 72.7289H192.409" fill="#202020"/>
</g>
<defs>
<clipPath id="clip0_1278_2">
<rect width="121" height="29" fill="white" transform="translate(74 53)"/>
</clipPath>
</defs>
</svg>
