<svg width="268" height="134" viewBox="0 0 268 134" fill="none" xmlns="http://www.w3.org/2000/svg">
<rect width="268" height="134" fill="white"/>
<g clip-path="url(#clip0_1278_78)">
<path d="M134.5 90.0195C122.247 90.0195 112.091 79.8636 112.091 67.5C112.091 64.961 112.532 62.5325 113.416 60.1039L126.552 85.6039C126.773 85.9351 126.883 86.2662 127.325 86.2662C127.766 86.2662 127.987 86.0455 128.097 85.6039L134.169 72.026C134.279 71.8052 134.39 71.8052 134.39 71.8052C134.61 71.8052 134.61 72.026 134.61 72.026L140.792 85.6039C141.013 85.9351 141.123 86.2662 141.565 86.2662C142.006 86.2662 142.227 86.0455 142.338 85.6039L155.474 60.1039C156.247 62.4221 156.799 64.8507 156.799 67.5C156.909 79.8636 146.753 90.0195 134.5 90.0195ZM134.5 61.7597C134.279 61.7597 134.279 61.539 134.279 61.539L127.214 46.3052C129.532 45.5325 131.961 44.9805 134.5 44.9805C137.039 44.9805 139.468 45.4221 141.786 46.3052L134.831 61.4286C134.721 61.539 134.721 61.7597 134.5 61.7597ZM127.104 78.0974C126.883 78.0974 126.883 77.8766 126.883 77.8766L115.403 55.7987C117.39 52.487 120.37 49.8377 123.682 47.8506L131.74 65.2922C131.961 65.6234 132.071 65.7338 132.403 65.7338H136.597C136.818 65.7338 137.039 65.6234 137.26 65.2922L145.318 47.8506C148.74 49.7273 151.61 52.487 153.597 55.7987L142.227 77.8766C142.117 78.0974 142.006 78.0974 142.006 78.0974C141.786 78.0974 141.786 77.8766 141.786 77.8766L137.37 68.2727C137.149 67.9416 137.039 67.8312 136.708 67.8312H132.513C132.292 67.8312 132.071 67.9416 131.851 68.2727L127.435 77.8766C127.325 77.8766 127.325 78.0974 127.104 78.0974ZM134.5 93C148.63 93 160 81.6299 160 67.5C160 53.3701 148.63 42 134.5 42C120.37 42 109 53.3701 109 67.5C109 81.6299 120.37 93 134.5 93Z" fill="#020101"/>
</g>
<defs>
<clipPath id="clip0_1278_78">
<rect width="51" height="51" fill="white" transform="translate(109 42)"/>
</clipPath>
</defs>
</svg>
